<mxfile host="app.diagrams.net" agent="Mozilla/5.0 (Windows NT 10.0; Win64; x64) AppleWebKit/537.36 (KHTML, like Gecko) Chrome/127.0.0.0 Safari/537.36" version="24.7.6">
  <diagram name="Seite-1" id="nfVVAyslaAZuFZFCs5i8">
    <mxGraphModel grid="1" page="1" gridSize="10" guides="1" tooltips="1" connect="1" arrows="1" fold="1" pageScale="1" pageWidth="5000" pageHeight="5000" math="0" shadow="0">
      <root>
        <mxCell id="0" />
        <mxCell id="1" parent="0" />
        <mxCell id="M0-3_TugUCF4q0yp-XVS-266" style="edgeStyle=orthogonalEdgeStyle;shape=connector;rounded=0;orthogonalLoop=1;jettySize=auto;html=1;exitX=0;exitY=0.5;exitDx=0;exitDy=0;entryX=1;entryY=0.5;entryDx=0;entryDy=0;strokeColor=default;align=center;verticalAlign=middle;fontFamily=Helvetica;fontSize=11;fontColor=default;labelBackgroundColor=default;endArrow=none;endFill=0;" edge="1" parent="1" source="M0-3_TugUCF4q0yp-XVS-1" target="M0-3_TugUCF4q0yp-XVS-265">
          <mxGeometry relative="1" as="geometry" />
        </mxCell>
        <mxCell id="M0-3_TugUCF4q0yp-XVS-1" value="Cinema" style="rounded=0;whiteSpace=wrap;html=1;" vertex="1" parent="1">
          <mxGeometry x="920" y="720" width="120" height="40" as="geometry" />
        </mxCell>
        <mxCell id="M0-3_TugUCF4q0yp-XVS-161" style="edgeStyle=orthogonalEdgeStyle;shape=connector;rounded=0;orthogonalLoop=1;jettySize=auto;html=1;exitX=1;exitY=0.5;exitDx=0;exitDy=0;entryX=0.5;entryY=0;entryDx=0;entryDy=0;strokeColor=default;align=center;verticalAlign=middle;fontFamily=Helvetica;fontSize=11;fontColor=default;labelBackgroundColor=default;endArrow=none;endFill=0;" edge="1" parent="1" source="M0-3_TugUCF4q0yp-XVS-2" target="M0-3_TugUCF4q0yp-XVS-160">
          <mxGeometry relative="1" as="geometry" />
        </mxCell>
        <mxCell id="M0-3_TugUCF4q0yp-XVS-2" value="Room" style="rounded=0;whiteSpace=wrap;html=1;" vertex="1" parent="1">
          <mxGeometry x="920" y="880" width="120" height="40" as="geometry" />
        </mxCell>
        <mxCell id="M0-3_TugUCF4q0yp-XVS-269" style="edgeStyle=orthogonalEdgeStyle;shape=connector;rounded=0;orthogonalLoop=1;jettySize=auto;html=1;exitX=0.5;exitY=1;exitDx=0;exitDy=0;entryX=0.5;entryY=0;entryDx=0;entryDy=0;strokeColor=default;align=center;verticalAlign=middle;fontFamily=Helvetica;fontSize=11;fontColor=default;labelBackgroundColor=default;endArrow=none;endFill=0;" edge="1" parent="1" source="M0-3_TugUCF4q0yp-XVS-3" target="M0-3_TugUCF4q0yp-XVS-268">
          <mxGeometry relative="1" as="geometry" />
        </mxCell>
        <mxCell id="M0-3_TugUCF4q0yp-XVS-3" value="Ticket" style="rounded=0;whiteSpace=wrap;html=1;" vertex="1" parent="1">
          <mxGeometry x="640" y="720" width="120" height="40" as="geometry" />
        </mxCell>
        <mxCell id="M0-3_TugUCF4q0yp-XVS-256" style="edgeStyle=orthogonalEdgeStyle;shape=connector;rounded=0;orthogonalLoop=1;jettySize=auto;html=1;exitX=1;exitY=0.5;exitDx=0;exitDy=0;entryX=0;entryY=0.5;entryDx=0;entryDy=0;strokeColor=default;align=center;verticalAlign=middle;fontFamily=Helvetica;fontSize=11;fontColor=default;labelBackgroundColor=default;endArrow=none;endFill=0;" edge="1" parent="1" source="M0-3_TugUCF4q0yp-XVS-4" target="M0-3_TugUCF4q0yp-XVS-253">
          <mxGeometry relative="1" as="geometry" />
        </mxCell>
        <mxCell id="M0-3_TugUCF4q0yp-XVS-4" value="Seat" style="rounded=0;whiteSpace=wrap;html=1;" vertex="1" parent="1">
          <mxGeometry x="640" y="880" width="120" height="40" as="geometry" />
        </mxCell>
        <mxCell id="M0-3_TugUCF4q0yp-XVS-5" value="SeatingPlan" style="rounded=0;whiteSpace=wrap;html=1;" vertex="1" parent="1">
          <mxGeometry x="920" y="1040" width="120" height="40" as="geometry" />
        </mxCell>
        <mxCell id="M0-3_TugUCF4q0yp-XVS-87" style="edgeStyle=orthogonalEdgeStyle;shape=connector;rounded=0;orthogonalLoop=1;jettySize=auto;html=1;exitX=1;exitY=0.5;exitDx=0;exitDy=0;strokeColor=default;align=center;verticalAlign=middle;fontFamily=Helvetica;fontSize=11;fontColor=default;labelBackgroundColor=default;endArrow=classic;endFill=1;entryX=0;entryY=0.5;entryDx=0;entryDy=0;" edge="1" parent="1" source="M0-3_TugUCF4q0yp-XVS-6" target="M0-3_TugUCF4q0yp-XVS-85">
          <mxGeometry relative="1" as="geometry">
            <mxPoint x="310" y="930" as="targetPoint" />
          </mxGeometry>
        </mxCell>
        <mxCell id="M0-3_TugUCF4q0yp-XVS-6" value="Actors" style="rounded=0;whiteSpace=wrap;html=1;" vertex="1" parent="1">
          <mxGeometry x="160" y="880" width="120" height="40" as="geometry" />
        </mxCell>
        <mxCell id="M0-3_TugUCF4q0yp-XVS-88" style="edgeStyle=orthogonalEdgeStyle;shape=connector;rounded=0;orthogonalLoop=1;jettySize=auto;html=1;exitX=0;exitY=0.5;exitDx=0;exitDy=0;entryX=1;entryY=0.5;entryDx=0;entryDy=0;strokeColor=default;align=center;verticalAlign=middle;fontFamily=Helvetica;fontSize=11;fontColor=default;labelBackgroundColor=default;endArrow=classic;endFill=1;startArrow=none;startFill=0;" edge="1" parent="1" source="M0-3_TugUCF4q0yp-XVS-7" target="M0-3_TugUCF4q0yp-XVS-85">
          <mxGeometry relative="1" as="geometry">
            <mxPoint x="350" y="880" as="targetPoint" />
          </mxGeometry>
        </mxCell>
        <mxCell id="M0-3_TugUCF4q0yp-XVS-7" value="Director" style="rounded=0;whiteSpace=wrap;html=1;" vertex="1" parent="1">
          <mxGeometry x="400" y="880" width="120" height="40" as="geometry" />
        </mxCell>
        <mxCell id="M0-3_TugUCF4q0yp-XVS-169" style="edgeStyle=orthogonalEdgeStyle;shape=connector;rounded=0;orthogonalLoop=1;jettySize=auto;html=1;exitX=1;exitY=0.5;exitDx=0;exitDy=0;entryX=0.5;entryY=1;entryDx=0;entryDy=0;strokeColor=default;align=center;verticalAlign=middle;fontFamily=Helvetica;fontSize=11;fontColor=default;labelBackgroundColor=default;endArrow=none;endFill=0;" edge="1" parent="1" source="M0-3_TugUCF4q0yp-XVS-8" target="M0-3_TugUCF4q0yp-XVS-167">
          <mxGeometry relative="1" as="geometry" />
        </mxCell>
        <mxCell id="M0-3_TugUCF4q0yp-XVS-8" value="Film" style="rounded=0;whiteSpace=wrap;html=1;" vertex="1" parent="1">
          <mxGeometry x="640" y="1040" width="120" height="40" as="geometry" />
        </mxCell>
        <mxCell id="M0-3_TugUCF4q0yp-XVS-20" style="edgeStyle=orthogonalEdgeStyle;shape=connector;rounded=0;orthogonalLoop=1;jettySize=auto;html=1;exitX=0.5;exitY=1;exitDx=0;exitDy=0;strokeColor=default;align=center;verticalAlign=middle;fontFamily=Helvetica;fontSize=11;fontColor=default;labelBackgroundColor=default;endArrow=none;endFill=0;" edge="1" parent="1" source="M0-3_TugUCF4q0yp-XVS-9">
          <mxGeometry relative="1" as="geometry">
            <mxPoint x="980" y="720" as="targetPoint" />
          </mxGeometry>
        </mxCell>
        <mxCell id="M0-3_TugUCF4q0yp-XVS-9" value="Name" style="ellipse;whiteSpace=wrap;html=1;" vertex="1" parent="1">
          <mxGeometry x="900" y="640" width="80" height="40" as="geometry" />
        </mxCell>
        <mxCell id="M0-3_TugUCF4q0yp-XVS-19" style="edgeStyle=orthogonalEdgeStyle;rounded=0;orthogonalLoop=1;jettySize=auto;html=1;exitX=0.5;exitY=1;exitDx=0;exitDy=0;endArrow=none;endFill=0;entryX=0.5;entryY=0;entryDx=0;entryDy=0;" edge="1" parent="1" source="M0-3_TugUCF4q0yp-XVS-13" target="M0-3_TugUCF4q0yp-XVS-1">
          <mxGeometry relative="1" as="geometry">
            <mxPoint x="1170" y="730" as="targetPoint" />
          </mxGeometry>
        </mxCell>
        <mxCell id="M0-3_TugUCF4q0yp-XVS-13" value="&lt;u&gt;PLZ&lt;/u&gt;" style="ellipse;whiteSpace=wrap;html=1;" vertex="1" parent="1">
          <mxGeometry x="980" y="640" width="80" height="40" as="geometry" />
        </mxCell>
        <mxCell id="M0-3_TugUCF4q0yp-XVS-29" style="edgeStyle=orthogonalEdgeStyle;shape=connector;rounded=0;orthogonalLoop=1;jettySize=auto;html=1;exitX=0.5;exitY=1;exitDx=0;exitDy=0;strokeColor=default;align=center;verticalAlign=middle;fontFamily=Helvetica;fontSize=11;fontColor=default;labelBackgroundColor=default;endArrow=none;endFill=0;" edge="1" parent="1" source="M0-3_TugUCF4q0yp-XVS-26">
          <mxGeometry relative="1" as="geometry">
            <mxPoint x="980" y="880" as="targetPoint" />
          </mxGeometry>
        </mxCell>
        <mxCell id="M0-3_TugUCF4q0yp-XVS-26" value="&lt;u&gt;RoomID&lt;/u&gt;" style="ellipse;whiteSpace=wrap;html=1;" vertex="1" parent="1">
          <mxGeometry x="900" y="800" width="80" height="40" as="geometry" />
        </mxCell>
        <mxCell id="M0-3_TugUCF4q0yp-XVS-39" style="edgeStyle=orthogonalEdgeStyle;shape=connector;rounded=0;orthogonalLoop=1;jettySize=auto;html=1;exitX=0.5;exitY=1;exitDx=0;exitDy=0;strokeColor=default;align=center;verticalAlign=middle;fontFamily=Helvetica;fontSize=11;fontColor=default;labelBackgroundColor=default;endArrow=none;endFill=0;" edge="1" parent="1" source="M0-3_TugUCF4q0yp-XVS-36">
          <mxGeometry relative="1" as="geometry">
            <mxPoint x="700" y="880" as="targetPoint" />
          </mxGeometry>
        </mxCell>
        <mxCell id="M0-3_TugUCF4q0yp-XVS-36" value="Row" style="ellipse;whiteSpace=wrap;html=1;" vertex="1" parent="1">
          <mxGeometry x="700" y="800" width="80" height="40" as="geometry" />
        </mxCell>
        <mxCell id="M0-3_TugUCF4q0yp-XVS-38" style="edgeStyle=orthogonalEdgeStyle;shape=connector;rounded=0;orthogonalLoop=1;jettySize=auto;html=1;exitX=0.5;exitY=1;exitDx=0;exitDy=0;entryX=0.5;entryY=0;entryDx=0;entryDy=0;strokeColor=default;align=center;verticalAlign=middle;fontFamily=Helvetica;fontSize=11;fontColor=default;labelBackgroundColor=default;endArrow=none;endFill=0;" edge="1" parent="1" source="M0-3_TugUCF4q0yp-XVS-37" target="M0-3_TugUCF4q0yp-XVS-4">
          <mxGeometry relative="1" as="geometry" />
        </mxCell>
        <mxCell id="M0-3_TugUCF4q0yp-XVS-37" value="&lt;u&gt;SeatNR&lt;/u&gt;" style="ellipse;whiteSpace=wrap;html=1;" vertex="1" parent="1">
          <mxGeometry x="620" y="800" width="80" height="40" as="geometry" />
        </mxCell>
        <mxCell id="M0-3_TugUCF4q0yp-XVS-44" style="edgeStyle=orthogonalEdgeStyle;shape=connector;rounded=0;orthogonalLoop=1;jettySize=auto;html=1;exitX=0.5;exitY=1;exitDx=0;exitDy=0;entryX=0.5;entryY=0;entryDx=0;entryDy=0;strokeColor=default;align=center;verticalAlign=middle;fontFamily=Helvetica;fontSize=11;fontColor=default;labelBackgroundColor=default;endArrow=none;endFill=0;" edge="1" parent="1" source="M0-3_TugUCF4q0yp-XVS-43" target="M0-3_TugUCF4q0yp-XVS-5">
          <mxGeometry relative="1" as="geometry" />
        </mxCell>
        <mxCell id="M0-3_TugUCF4q0yp-XVS-43" value="RoomID" style="ellipse;whiteSpace=wrap;html=1;" vertex="1" parent="1">
          <mxGeometry x="900" y="960" width="80" height="40" as="geometry" />
        </mxCell>
        <mxCell id="M0-3_TugUCF4q0yp-XVS-50" style="edgeStyle=orthogonalEdgeStyle;shape=connector;rounded=0;orthogonalLoop=1;jettySize=auto;html=1;exitX=0.5;exitY=1;exitDx=0;exitDy=0;entryX=0.5;entryY=0;entryDx=0;entryDy=0;strokeColor=default;align=center;verticalAlign=middle;fontFamily=Helvetica;fontSize=11;fontColor=default;labelBackgroundColor=default;endArrow=none;endFill=0;" edge="1" parent="1" source="M0-3_TugUCF4q0yp-XVS-49" target="M0-3_TugUCF4q0yp-XVS-5">
          <mxGeometry relative="1" as="geometry" />
        </mxCell>
        <mxCell id="M0-3_TugUCF4q0yp-XVS-49" value="&lt;u&gt;PlanNR&lt;/u&gt;" style="ellipse;whiteSpace=wrap;html=1;" vertex="1" parent="1">
          <mxGeometry x="980" y="960" width="80" height="40" as="geometry" />
        </mxCell>
        <mxCell id="M0-3_TugUCF4q0yp-XVS-54" style="edgeStyle=orthogonalEdgeStyle;shape=connector;rounded=0;orthogonalLoop=1;jettySize=auto;html=1;exitX=0.5;exitY=1;exitDx=0;exitDy=0;entryX=0.5;entryY=0;entryDx=0;entryDy=0;strokeColor=default;align=center;verticalAlign=middle;fontFamily=Helvetica;fontSize=11;fontColor=default;labelBackgroundColor=default;endArrow=none;endFill=0;" edge="1" parent="1" source="M0-3_TugUCF4q0yp-XVS-52" target="M0-3_TugUCF4q0yp-XVS-3">
          <mxGeometry relative="1" as="geometry" />
        </mxCell>
        <mxCell id="M0-3_TugUCF4q0yp-XVS-52" value="Price" style="ellipse;whiteSpace=wrap;html=1;" vertex="1" parent="1">
          <mxGeometry x="620" y="640" width="80" height="40" as="geometry" />
        </mxCell>
        <mxCell id="M0-3_TugUCF4q0yp-XVS-55" style="edgeStyle=orthogonalEdgeStyle;shape=connector;rounded=0;orthogonalLoop=1;jettySize=auto;html=1;exitX=0.5;exitY=1;exitDx=0;exitDy=0;strokeColor=default;align=center;verticalAlign=middle;fontFamily=Helvetica;fontSize=11;fontColor=default;labelBackgroundColor=default;endArrow=none;endFill=0;" edge="1" parent="1" source="M0-3_TugUCF4q0yp-XVS-53">
          <mxGeometry relative="1" as="geometry">
            <mxPoint x="699.9999999999998" y="720" as="targetPoint" />
          </mxGeometry>
        </mxCell>
        <mxCell id="M0-3_TugUCF4q0yp-XVS-53" value="&lt;u&gt;TicketID&lt;/u&gt;" style="ellipse;whiteSpace=wrap;html=1;" vertex="1" parent="1">
          <mxGeometry x="700" y="640" width="80" height="40" as="geometry" />
        </mxCell>
        <mxCell id="M0-3_TugUCF4q0yp-XVS-86" style="edgeStyle=orthogonalEdgeStyle;shape=connector;rounded=0;orthogonalLoop=1;jettySize=auto;html=1;exitX=0.5;exitY=1;exitDx=0;exitDy=0;entryX=0.5;entryY=0;entryDx=0;entryDy=0;strokeColor=default;align=center;verticalAlign=middle;fontFamily=Helvetica;fontSize=11;fontColor=default;labelBackgroundColor=default;endArrow=none;endFill=0;startArrow=classic;startFill=1;" edge="1" parent="1" source="M0-3_TugUCF4q0yp-XVS-60" target="M0-3_TugUCF4q0yp-XVS-85">
          <mxGeometry relative="1" as="geometry" />
        </mxCell>
        <mxCell id="M0-3_TugUCF4q0yp-XVS-60" value="FilmPerson" style="rounded=0;whiteSpace=wrap;html=1;" vertex="1" parent="1">
          <mxGeometry x="280" y="760" width="120" height="40" as="geometry" />
        </mxCell>
        <mxCell id="M0-3_TugUCF4q0yp-XVS-69" style="edgeStyle=orthogonalEdgeStyle;shape=connector;rounded=0;orthogonalLoop=1;jettySize=auto;html=1;exitX=0.5;exitY=1;exitDx=0;exitDy=0;entryX=0.5;entryY=0;entryDx=0;entryDy=0;strokeColor=default;align=center;verticalAlign=middle;fontFamily=Helvetica;fontSize=11;fontColor=default;labelBackgroundColor=default;endArrow=none;endFill=0;" edge="1" parent="1" source="M0-3_TugUCF4q0yp-XVS-61" target="M0-3_TugUCF4q0yp-XVS-60">
          <mxGeometry relative="1" as="geometry">
            <Array as="points">
              <mxPoint x="260" y="740" />
              <mxPoint x="340" y="740" />
            </Array>
          </mxGeometry>
        </mxCell>
        <mxCell id="M0-3_TugUCF4q0yp-XVS-61" value="Surname" style="ellipse;whiteSpace=wrap;html=1;" vertex="1" parent="1">
          <mxGeometry x="220" y="680" width="80" height="40" as="geometry" />
        </mxCell>
        <mxCell id="M0-3_TugUCF4q0yp-XVS-223" style="edgeStyle=orthogonalEdgeStyle;shape=connector;rounded=0;orthogonalLoop=1;jettySize=auto;html=1;exitX=0.5;exitY=1;exitDx=0;exitDy=0;strokeColor=default;align=center;verticalAlign=middle;fontFamily=Helvetica;fontSize=11;fontColor=default;labelBackgroundColor=default;endArrow=none;endFill=0;" edge="1" parent="1" source="M0-3_TugUCF4q0yp-XVS-63">
          <mxGeometry relative="1" as="geometry">
            <mxPoint x="339.8571428571422" y="760" as="targetPoint" />
          </mxGeometry>
        </mxCell>
        <mxCell id="M0-3_TugUCF4q0yp-XVS-63" value="Firstname" style="ellipse;whiteSpace=wrap;html=1;" vertex="1" parent="1">
          <mxGeometry x="300" y="680" width="80" height="40" as="geometry" />
        </mxCell>
        <mxCell id="M0-3_TugUCF4q0yp-XVS-224" style="edgeStyle=orthogonalEdgeStyle;shape=connector;rounded=0;orthogonalLoop=1;jettySize=auto;html=1;exitX=0.5;exitY=1;exitDx=0;exitDy=0;strokeColor=default;align=center;verticalAlign=middle;fontFamily=Helvetica;fontSize=11;fontColor=default;labelBackgroundColor=default;endArrow=none;endFill=0;" edge="1" parent="1" source="M0-3_TugUCF4q0yp-XVS-64">
          <mxGeometry relative="1" as="geometry">
            <mxPoint x="340" y="760" as="targetPoint" />
          </mxGeometry>
        </mxCell>
        <mxCell id="M0-3_TugUCF4q0yp-XVS-64" value="Nationality" style="ellipse;whiteSpace=wrap;html=1;" vertex="1" parent="1">
          <mxGeometry x="380" y="680" width="80" height="40" as="geometry" />
        </mxCell>
        <mxCell id="M0-3_TugUCF4q0yp-XVS-73" style="edgeStyle=orthogonalEdgeStyle;shape=connector;rounded=0;orthogonalLoop=1;jettySize=auto;html=1;exitX=0.5;exitY=1;exitDx=0;exitDy=0;entryX=0.5;entryY=0;entryDx=0;entryDy=0;strokeColor=default;align=center;verticalAlign=middle;fontFamily=Helvetica;fontSize=11;fontColor=default;labelBackgroundColor=default;endArrow=none;endFill=0;" edge="1" parent="1" source="M0-3_TugUCF4q0yp-XVS-65" target="M0-3_TugUCF4q0yp-XVS-60">
          <mxGeometry relative="1" as="geometry">
            <Array as="points">
              <mxPoint x="260" y="660" />
              <mxPoint x="210" y="660" />
              <mxPoint x="210" y="740" />
              <mxPoint x="340" y="740" />
            </Array>
          </mxGeometry>
        </mxCell>
        <mxCell id="M0-3_TugUCF4q0yp-XVS-65" value="DoB" style="ellipse;whiteSpace=wrap;html=1;" vertex="1" parent="1">
          <mxGeometry x="220" y="600" width="80" height="40" as="geometry" />
        </mxCell>
        <mxCell id="M0-3_TugUCF4q0yp-XVS-222" style="edgeStyle=orthogonalEdgeStyle;shape=connector;rounded=0;orthogonalLoop=1;jettySize=auto;html=1;exitX=0.5;exitY=1;exitDx=0;exitDy=0;entryX=0.5;entryY=0;entryDx=0;entryDy=0;strokeColor=default;align=center;verticalAlign=middle;fontFamily=Helvetica;fontSize=11;fontColor=default;labelBackgroundColor=default;endArrow=none;endFill=0;" edge="1" parent="1" source="M0-3_TugUCF4q0yp-XVS-67" target="M0-3_TugUCF4q0yp-XVS-60">
          <mxGeometry relative="1" as="geometry">
            <Array as="points">
              <mxPoint x="340" y="660" />
              <mxPoint x="210" y="660" />
              <mxPoint x="210" y="740" />
              <mxPoint x="340" y="740" />
            </Array>
          </mxGeometry>
        </mxCell>
        <mxCell id="M0-3_TugUCF4q0yp-XVS-67" value="DoD" style="ellipse;whiteSpace=wrap;html=1;" vertex="1" parent="1">
          <mxGeometry x="300" y="600" width="80" height="40" as="geometry" />
        </mxCell>
        <mxCell id="M0-3_TugUCF4q0yp-XVS-225" style="edgeStyle=orthogonalEdgeStyle;shape=connector;rounded=0;orthogonalLoop=1;jettySize=auto;html=1;exitX=0.5;exitY=1;exitDx=0;exitDy=0;entryX=0.5;entryY=0;entryDx=0;entryDy=0;strokeColor=default;align=center;verticalAlign=middle;fontFamily=Helvetica;fontSize=11;fontColor=default;labelBackgroundColor=default;endArrow=none;endFill=0;" edge="1" parent="1" source="M0-3_TugUCF4q0yp-XVS-79" target="M0-3_TugUCF4q0yp-XVS-60">
          <mxGeometry relative="1" as="geometry">
            <Array as="points">
              <mxPoint x="420" y="660" />
              <mxPoint x="210" y="660" />
              <mxPoint x="210" y="740" />
              <mxPoint x="340" y="740" />
            </Array>
          </mxGeometry>
        </mxCell>
        <mxCell id="M0-3_TugUCF4q0yp-XVS-79" value="&lt;u&gt;PNVNR&lt;/u&gt;" style="ellipse;whiteSpace=wrap;html=1;" vertex="1" parent="1">
          <mxGeometry x="380" y="600" width="80" height="40" as="geometry" />
        </mxCell>
        <mxCell id="M0-3_TugUCF4q0yp-XVS-85" value="is-a" style="shape=hexagon;perimeter=hexagonPerimeter2;whiteSpace=wrap;html=1;fixedSize=1;fontFamily=Helvetica;fontSize=11;fontColor=default;labelBackgroundColor=default;" vertex="1" parent="1">
          <mxGeometry x="300" y="850" width="80" height="40" as="geometry" />
        </mxCell>
        <mxCell id="M0-3_TugUCF4q0yp-XVS-173" style="edgeStyle=orthogonalEdgeStyle;shape=connector;rounded=0;orthogonalLoop=1;jettySize=auto;html=1;exitX=0.5;exitY=0;exitDx=0;exitDy=0;entryX=0.5;entryY=1;entryDx=0;entryDy=0;strokeColor=default;align=center;verticalAlign=middle;fontFamily=Helvetica;fontSize=11;fontColor=default;labelBackgroundColor=default;endArrow=none;endFill=0;" edge="1" parent="1" source="M0-3_TugUCF4q0yp-XVS-89" target="M0-3_TugUCF4q0yp-XVS-8">
          <mxGeometry relative="1" as="geometry" />
        </mxCell>
        <mxCell id="M0-3_TugUCF4q0yp-XVS-89" value="Title" style="ellipse;whiteSpace=wrap;html=1;" vertex="1" parent="1">
          <mxGeometry x="540" y="1120" width="80" height="40" as="geometry" />
        </mxCell>
        <mxCell id="M0-3_TugUCF4q0yp-XVS-174" style="edgeStyle=orthogonalEdgeStyle;shape=connector;rounded=0;orthogonalLoop=1;jettySize=auto;html=1;exitX=0.5;exitY=0;exitDx=0;exitDy=0;entryX=0.5;entryY=1;entryDx=0;entryDy=0;strokeColor=default;align=center;verticalAlign=middle;fontFamily=Helvetica;fontSize=11;fontColor=default;labelBackgroundColor=default;endArrow=none;endFill=0;" edge="1" parent="1" source="M0-3_TugUCF4q0yp-XVS-92" target="M0-3_TugUCF4q0yp-XVS-8">
          <mxGeometry relative="1" as="geometry" />
        </mxCell>
        <mxCell id="M0-3_TugUCF4q0yp-XVS-92" value="&lt;u&gt;FilmID&lt;/u&gt;" style="ellipse;whiteSpace=wrap;html=1;" vertex="1" parent="1">
          <mxGeometry x="620" y="1120" width="80" height="40" as="geometry" />
        </mxCell>
        <mxCell id="M0-3_TugUCF4q0yp-XVS-175" style="edgeStyle=orthogonalEdgeStyle;shape=connector;rounded=0;orthogonalLoop=1;jettySize=auto;html=1;exitX=0.5;exitY=0;exitDx=0;exitDy=0;strokeColor=default;align=center;verticalAlign=middle;fontFamily=Helvetica;fontSize=11;fontColor=default;labelBackgroundColor=default;endArrow=none;endFill=0;" edge="1" parent="1" source="M0-3_TugUCF4q0yp-XVS-97">
          <mxGeometry relative="1" as="geometry">
            <mxPoint x="699.9999999999991" y="1080" as="targetPoint" />
          </mxGeometry>
        </mxCell>
        <mxCell id="M0-3_TugUCF4q0yp-XVS-97" value="YoP" style="ellipse;whiteSpace=wrap;html=1;" vertex="1" parent="1">
          <mxGeometry x="700" y="1120" width="80" height="40" as="geometry" />
        </mxCell>
        <mxCell id="M0-3_TugUCF4q0yp-XVS-170" style="edgeStyle=orthogonalEdgeStyle;shape=connector;rounded=0;orthogonalLoop=1;jettySize=auto;html=1;exitX=0.5;exitY=1;exitDx=0;exitDy=0;entryX=0.5;entryY=0;entryDx=0;entryDy=0;strokeColor=default;align=center;verticalAlign=middle;fontFamily=Helvetica;fontSize=11;fontColor=default;labelBackgroundColor=default;endArrow=none;endFill=0;" edge="1" parent="1" source="M0-3_TugUCF4q0yp-XVS-98" target="M0-3_TugUCF4q0yp-XVS-8">
          <mxGeometry relative="1" as="geometry" />
        </mxCell>
        <mxCell id="M0-3_TugUCF4q0yp-XVS-98" value="Country" style="ellipse;whiteSpace=wrap;html=1;" vertex="1" parent="1">
          <mxGeometry x="660" y="920" width="80" height="40" as="geometry" />
        </mxCell>
        <mxCell id="M0-3_TugUCF4q0yp-XVS-172" style="edgeStyle=orthogonalEdgeStyle;shape=connector;rounded=0;orthogonalLoop=1;jettySize=auto;html=1;exitX=0.5;exitY=1;exitDx=0;exitDy=0;strokeColor=default;align=center;verticalAlign=middle;fontFamily=Helvetica;fontSize=11;fontColor=default;labelBackgroundColor=default;endArrow=none;endFill=0;" edge="1" parent="1" source="M0-3_TugUCF4q0yp-XVS-99">
          <mxGeometry relative="1" as="geometry">
            <mxPoint x="699.9999999999991" y="1040" as="targetPoint" />
          </mxGeometry>
        </mxCell>
        <mxCell id="M0-3_TugUCF4q0yp-XVS-99" value="Language" style="ellipse;whiteSpace=wrap;html=1;" vertex="1" parent="1">
          <mxGeometry x="700" y="960" width="80" height="40" as="geometry" />
        </mxCell>
        <mxCell id="M0-3_TugUCF4q0yp-XVS-171" style="edgeStyle=orthogonalEdgeStyle;shape=connector;rounded=0;orthogonalLoop=1;jettySize=auto;html=1;exitX=0.5;exitY=1;exitDx=0;exitDy=0;strokeColor=default;align=center;verticalAlign=middle;fontFamily=Helvetica;fontSize=11;fontColor=default;labelBackgroundColor=default;endArrow=none;endFill=0;" edge="1" parent="1" source="M0-3_TugUCF4q0yp-XVS-100">
          <mxGeometry relative="1" as="geometry">
            <mxPoint x="699.9999999999991" y="1040" as="targetPoint" />
          </mxGeometry>
        </mxCell>
        <mxCell id="M0-3_TugUCF4q0yp-XVS-100" value="Duration" style="ellipse;whiteSpace=wrap;html=1;" vertex="1" parent="1">
          <mxGeometry x="620" y="960" width="80" height="40" as="geometry" />
        </mxCell>
        <mxCell id="M0-3_TugUCF4q0yp-XVS-176" style="edgeStyle=orthogonalEdgeStyle;shape=connector;rounded=0;orthogonalLoop=1;jettySize=auto;html=1;exitX=0.5;exitY=0;exitDx=0;exitDy=0;entryX=0.5;entryY=1;entryDx=0;entryDy=0;strokeColor=default;align=center;verticalAlign=middle;fontFamily=Helvetica;fontSize=11;fontColor=default;labelBackgroundColor=default;endArrow=none;endFill=0;" edge="1" parent="1" source="M0-3_TugUCF4q0yp-XVS-104" target="M0-3_TugUCF4q0yp-XVS-8">
          <mxGeometry relative="1" as="geometry" />
        </mxCell>
        <mxCell id="M0-3_TugUCF4q0yp-XVS-104" value="Distributor" style="ellipse;whiteSpace=wrap;html=1;" vertex="1" parent="1">
          <mxGeometry x="780" y="1120" width="80" height="40" as="geometry" />
        </mxCell>
        <mxCell id="M0-3_TugUCF4q0yp-XVS-162" style="edgeStyle=orthogonalEdgeStyle;shape=connector;rounded=0;orthogonalLoop=1;jettySize=auto;html=1;exitX=0.5;exitY=1;exitDx=0;exitDy=0;entryX=1;entryY=0.5;entryDx=0;entryDy=0;strokeColor=default;align=center;verticalAlign=middle;fontFamily=Helvetica;fontSize=11;fontColor=default;labelBackgroundColor=default;endArrow=none;endFill=0;" edge="1" parent="1" source="M0-3_TugUCF4q0yp-XVS-160" target="M0-3_TugUCF4q0yp-XVS-5">
          <mxGeometry relative="1" as="geometry" />
        </mxCell>
        <mxCell id="M0-3_TugUCF4q0yp-XVS-160" value="receives" style="rhombus;whiteSpace=wrap;html=1;fontFamily=Helvetica;fontSize=11;fontColor=default;labelBackgroundColor=default;" vertex="1" parent="1">
          <mxGeometry x="1080" y="960" width="80" height="40" as="geometry" />
        </mxCell>
        <mxCell id="M0-3_TugUCF4q0yp-XVS-168" style="edgeStyle=orthogonalEdgeStyle;shape=connector;rounded=0;orthogonalLoop=1;jettySize=auto;html=1;exitX=0.5;exitY=0;exitDx=0;exitDy=0;entryX=0.5;entryY=1;entryDx=0;entryDy=0;strokeColor=default;align=center;verticalAlign=middle;fontFamily=Helvetica;fontSize=11;fontColor=default;labelBackgroundColor=default;endArrow=none;endFill=0;" edge="1" parent="1" source="M0-3_TugUCF4q0yp-XVS-167" target="M0-3_TugUCF4q0yp-XVS-2">
          <mxGeometry relative="1" as="geometry" />
        </mxCell>
        <mxCell id="M0-3_TugUCF4q0yp-XVS-167" value="receives" style="rhombus;whiteSpace=wrap;html=1;fontFamily=Helvetica;fontSize=11;fontColor=default;labelBackgroundColor=default;" vertex="1" parent="1">
          <mxGeometry x="800" y="960" width="80" height="40" as="geometry" />
        </mxCell>
        <mxCell id="M0-3_TugUCF4q0yp-XVS-200" style="edgeStyle=orthogonalEdgeStyle;shape=connector;rounded=0;orthogonalLoop=1;jettySize=auto;html=1;exitX=0.5;exitY=1;exitDx=0;exitDy=0;entryX=0.5;entryY=0;entryDx=0;entryDy=0;strokeColor=default;align=center;verticalAlign=middle;fontFamily=Helvetica;fontSize=11;fontColor=default;labelBackgroundColor=default;endArrow=none;endFill=0;" edge="1" parent="1" source="M0-3_TugUCF4q0yp-XVS-198" target="M0-3_TugUCF4q0yp-XVS-6">
          <mxGeometry relative="1" as="geometry" />
        </mxCell>
        <mxCell id="M0-3_TugUCF4q0yp-XVS-198" value="Role" style="ellipse;whiteSpace=wrap;html=1;" vertex="1" parent="1">
          <mxGeometry x="180" y="800" width="80" height="40" as="geometry" />
        </mxCell>
        <mxCell id="M0-3_TugUCF4q0yp-XVS-203" style="edgeStyle=orthogonalEdgeStyle;shape=connector;rounded=0;orthogonalLoop=1;jettySize=auto;html=1;exitX=0.5;exitY=1;exitDx=0;exitDy=0;entryX=0.5;entryY=0;entryDx=0;entryDy=0;strokeColor=default;align=center;verticalAlign=middle;fontFamily=Helvetica;fontSize=11;fontColor=default;labelBackgroundColor=default;endArrow=none;endFill=0;" edge="1" parent="1" source="M0-3_TugUCF4q0yp-XVS-202" target="M0-3_TugUCF4q0yp-XVS-7">
          <mxGeometry relative="1" as="geometry" />
        </mxCell>
        <mxCell id="M0-3_TugUCF4q0yp-XVS-202" value="IsActor" style="ellipse;whiteSpace=wrap;html=1;" vertex="1" parent="1">
          <mxGeometry x="420" y="800" width="80" height="40" as="geometry" />
        </mxCell>
        <mxCell id="M0-3_TugUCF4q0yp-XVS-214" style="edgeStyle=orthogonalEdgeStyle;shape=connector;rounded=0;orthogonalLoop=1;jettySize=auto;html=1;exitX=0.5;exitY=0;exitDx=0;exitDy=0;entryX=0.5;entryY=1;entryDx=0;entryDy=0;strokeColor=default;align=center;verticalAlign=middle;fontFamily=Helvetica;fontSize=11;fontColor=default;labelBackgroundColor=default;endArrow=none;endFill=0;" edge="1" parent="1" source="M0-3_TugUCF4q0yp-XVS-211" target="M0-3_TugUCF4q0yp-XVS-7">
          <mxGeometry relative="1" as="geometry" />
        </mxCell>
        <mxCell id="M0-3_TugUCF4q0yp-XVS-215" style="edgeStyle=orthogonalEdgeStyle;shape=connector;rounded=0;orthogonalLoop=1;jettySize=auto;html=1;exitX=0.5;exitY=1;exitDx=0;exitDy=0;entryX=0;entryY=0.25;entryDx=0;entryDy=0;strokeColor=default;align=center;verticalAlign=middle;fontFamily=Helvetica;fontSize=11;fontColor=default;labelBackgroundColor=default;endArrow=none;endFill=0;" edge="1" parent="1" source="M0-3_TugUCF4q0yp-XVS-211" target="M0-3_TugUCF4q0yp-XVS-8">
          <mxGeometry relative="1" as="geometry" />
        </mxCell>
        <mxCell id="M0-3_TugUCF4q0yp-XVS-211" value="receives" style="rhombus;whiteSpace=wrap;html=1;fontFamily=Helvetica;fontSize=11;fontColor=default;labelBackgroundColor=default;" vertex="1" parent="1">
          <mxGeometry x="420" y="960" width="80" height="40" as="geometry" />
        </mxCell>
        <mxCell id="M0-3_TugUCF4q0yp-XVS-213" style="edgeStyle=orthogonalEdgeStyle;shape=connector;rounded=0;orthogonalLoop=1;jettySize=auto;html=1;exitX=0.5;exitY=0;exitDx=0;exitDy=0;entryX=0.5;entryY=1;entryDx=0;entryDy=0;strokeColor=default;align=center;verticalAlign=middle;fontFamily=Helvetica;fontSize=11;fontColor=default;labelBackgroundColor=default;endArrow=none;endFill=0;" edge="1" parent="1" source="M0-3_TugUCF4q0yp-XVS-212" target="M0-3_TugUCF4q0yp-XVS-6">
          <mxGeometry relative="1" as="geometry" />
        </mxCell>
        <mxCell id="M0-3_TugUCF4q0yp-XVS-216" style="edgeStyle=orthogonalEdgeStyle;shape=connector;rounded=0;orthogonalLoop=1;jettySize=auto;html=1;exitX=0.5;exitY=1;exitDx=0;exitDy=0;strokeColor=default;align=center;verticalAlign=middle;fontFamily=Helvetica;fontSize=11;fontColor=default;labelBackgroundColor=default;endArrow=none;endFill=0;entryX=0;entryY=0.75;entryDx=0;entryDy=0;" edge="1" parent="1" source="M0-3_TugUCF4q0yp-XVS-212" target="M0-3_TugUCF4q0yp-XVS-8">
          <mxGeometry relative="1" as="geometry">
            <mxPoint x="450" y="1100" as="targetPoint" />
          </mxGeometry>
        </mxCell>
        <mxCell id="M0-3_TugUCF4q0yp-XVS-212" value="receives" style="rhombus;whiteSpace=wrap;html=1;fontFamily=Helvetica;fontSize=11;fontColor=default;labelBackgroundColor=default;" vertex="1" parent="1">
          <mxGeometry x="180" y="960" width="80" height="40" as="geometry" />
        </mxCell>
        <mxCell id="M0-3_TugUCF4q0yp-XVS-217" value="0,*" style="text;html=1;align=center;verticalAlign=middle;resizable=0;points=[];autosize=1;strokeColor=none;fillColor=none;fontFamily=Helvetica;fontSize=11;fontColor=default;labelBackgroundColor=default;" vertex="1" parent="1">
          <mxGeometry x="460" y="930" width="40" height="30" as="geometry" />
        </mxCell>
        <mxCell id="M0-3_TugUCF4q0yp-XVS-218" value="0,*" style="text;html=1;align=center;verticalAlign=middle;resizable=0;points=[];autosize=1;strokeColor=none;fillColor=none;fontFamily=Helvetica;fontSize=11;fontColor=default;labelBackgroundColor=default;" vertex="1" parent="1">
          <mxGeometry x="220" y="930" width="40" height="30" as="geometry" />
        </mxCell>
        <mxCell id="M0-3_TugUCF4q0yp-XVS-219" value="1,*" style="text;html=1;align=center;verticalAlign=middle;resizable=0;points=[];autosize=1;strokeColor=none;fillColor=none;fontFamily=Helvetica;fontSize=11;fontColor=default;labelBackgroundColor=default;" vertex="1" parent="1">
          <mxGeometry x="220" y="1000" width="40" height="30" as="geometry" />
        </mxCell>
        <mxCell id="M0-3_TugUCF4q0yp-XVS-220" value="1,1" style="text;html=1;align=center;verticalAlign=middle;resizable=0;points=[];autosize=1;strokeColor=none;fillColor=none;fontFamily=Helvetica;fontSize=11;fontColor=default;labelBackgroundColor=default;" vertex="1" parent="1">
          <mxGeometry x="460" y="1000" width="40" height="30" as="geometry" />
        </mxCell>
        <mxCell id="M0-3_TugUCF4q0yp-XVS-232" value="1,*" style="text;html=1;align=center;verticalAlign=middle;resizable=0;points=[];autosize=1;strokeColor=none;fillColor=none;fontFamily=Helvetica;fontSize=11;fontColor=default;labelBackgroundColor=default;" vertex="1" parent="1">
          <mxGeometry x="800" y="1000" width="40" height="30" as="geometry" />
        </mxCell>
        <mxCell id="M0-3_TugUCF4q0yp-XVS-233" value="0,1" style="text;html=1;align=center;verticalAlign=middle;resizable=0;points=[];autosize=1;strokeColor=none;fillColor=none;fontFamily=Helvetica;fontSize=11;fontColor=default;labelBackgroundColor=default;" vertex="1" parent="1">
          <mxGeometry x="800" y="930" width="40" height="30" as="geometry" />
        </mxCell>
        <mxCell id="M0-3_TugUCF4q0yp-XVS-234" value="0,1" style="text;html=1;align=center;verticalAlign=middle;resizable=0;points=[];autosize=1;strokeColor=none;fillColor=none;fontFamily=Helvetica;fontSize=11;fontColor=default;labelBackgroundColor=default;" vertex="1" parent="1">
          <mxGeometry x="1080" y="930" width="40" height="30" as="geometry" />
        </mxCell>
        <mxCell id="M0-3_TugUCF4q0yp-XVS-235" value="1,1" style="text;html=1;align=center;verticalAlign=middle;resizable=0;points=[];autosize=1;strokeColor=none;fillColor=none;fontFamily=Helvetica;fontSize=11;fontColor=default;labelBackgroundColor=default;" vertex="1" parent="1">
          <mxGeometry x="1080" y="1000" width="40" height="30" as="geometry" />
        </mxCell>
        <mxCell id="M0-3_TugUCF4q0yp-XVS-236" value="1,*" style="text;html=1;align=center;verticalAlign=middle;resizable=0;points=[];autosize=1;strokeColor=none;fillColor=none;fontFamily=Helvetica;fontSize=11;fontColor=default;labelBackgroundColor=default;" vertex="1" parent="1">
          <mxGeometry x="880" y="870" width="40" height="30" as="geometry" />
        </mxCell>
        <mxCell id="M0-3_TugUCF4q0yp-XVS-257" style="edgeStyle=orthogonalEdgeStyle;shape=connector;rounded=0;orthogonalLoop=1;jettySize=auto;html=1;exitX=1;exitY=0.5;exitDx=0;exitDy=0;entryX=0;entryY=0.5;entryDx=0;entryDy=0;strokeColor=default;align=center;verticalAlign=middle;fontFamily=Helvetica;fontSize=11;fontColor=default;labelBackgroundColor=default;endArrow=none;endFill=0;" edge="1" parent="1" source="M0-3_TugUCF4q0yp-XVS-253" target="M0-3_TugUCF4q0yp-XVS-2">
          <mxGeometry relative="1" as="geometry" />
        </mxCell>
        <mxCell id="M0-3_TugUCF4q0yp-XVS-253" value="houses" style="rhombus;whiteSpace=wrap;html=1;fontFamily=Helvetica;fontSize=11;fontColor=default;labelBackgroundColor=default;" vertex="1" parent="1">
          <mxGeometry x="800" y="880" width="80" height="40" as="geometry" />
        </mxCell>
        <mxCell id="M0-3_TugUCF4q0yp-XVS-267" style="edgeStyle=orthogonalEdgeStyle;shape=connector;rounded=0;orthogonalLoop=1;jettySize=auto;html=1;exitX=0;exitY=0.5;exitDx=0;exitDy=0;entryX=1;entryY=0.5;entryDx=0;entryDy=0;strokeColor=default;align=center;verticalAlign=middle;fontFamily=Helvetica;fontSize=11;fontColor=default;labelBackgroundColor=default;endArrow=none;endFill=0;" edge="1" parent="1" source="M0-3_TugUCF4q0yp-XVS-265" target="M0-3_TugUCF4q0yp-XVS-3">
          <mxGeometry relative="1" as="geometry" />
        </mxCell>
        <mxCell id="M0-3_TugUCF4q0yp-XVS-265" value="contains" style="rhombus;whiteSpace=wrap;html=1;fontFamily=Helvetica;fontSize=11;fontColor=default;labelBackgroundColor=default;" vertex="1" parent="1">
          <mxGeometry x="800" y="720" width="80" height="40" as="geometry" />
        </mxCell>
        <mxCell id="M0-3_TugUCF4q0yp-XVS-270" style="edgeStyle=orthogonalEdgeStyle;shape=connector;rounded=0;orthogonalLoop=1;jettySize=auto;html=1;exitX=0.5;exitY=1;exitDx=0;exitDy=0;entryX=0;entryY=0;entryDx=0;entryDy=0;strokeColor=default;align=center;verticalAlign=middle;fontFamily=Helvetica;fontSize=11;fontColor=default;labelBackgroundColor=default;endArrow=none;endFill=0;" edge="1" parent="1" source="M0-3_TugUCF4q0yp-XVS-268" target="M0-3_TugUCF4q0yp-XVS-4">
          <mxGeometry relative="1" as="geometry" />
        </mxCell>
        <mxCell id="M0-3_TugUCF4q0yp-XVS-268" value="contains" style="rhombus;whiteSpace=wrap;html=1;fontFamily=Helvetica;fontSize=11;fontColor=default;labelBackgroundColor=default;" vertex="1" parent="1">
          <mxGeometry x="520" y="800" width="80" height="40" as="geometry" />
        </mxCell>
        <mxCell id="M0-3_TugUCF4q0yp-XVS-279" value="1,1" style="text;html=1;align=center;verticalAlign=middle;resizable=0;points=[];autosize=1;strokeColor=none;fillColor=none;fontFamily=Helvetica;fontSize=11;fontColor=default;labelBackgroundColor=default;" vertex="1" parent="1">
          <mxGeometry x="760" y="870" width="40" height="30" as="geometry" />
        </mxCell>
        <mxCell id="M0-3_TugUCF4q0yp-XVS-284" value="0,1" style="text;html=1;align=center;verticalAlign=middle;resizable=0;points=[];autosize=1;strokeColor=none;fillColor=none;fontFamily=Helvetica;fontSize=11;fontColor=default;labelBackgroundColor=default;" vertex="1" parent="1">
          <mxGeometry x="520" y="840" width="40" height="30" as="geometry" />
        </mxCell>
        <mxCell id="M0-3_TugUCF4q0yp-XVS-285" value="1,1" style="text;html=1;align=center;verticalAlign=middle;resizable=0;points=[];autosize=1;strokeColor=none;fillColor=none;fontFamily=Helvetica;fontSize=11;fontColor=default;labelBackgroundColor=default;" vertex="1" parent="1">
          <mxGeometry x="520" y="770" width="40" height="30" as="geometry" />
        </mxCell>
        <mxCell id="M0-3_TugUCF4q0yp-XVS-286" value="1,1" style="text;html=1;align=center;verticalAlign=middle;resizable=0;points=[];autosize=1;strokeColor=none;fillColor=none;fontFamily=Helvetica;fontSize=11;fontColor=default;labelBackgroundColor=default;" vertex="1" parent="1">
          <mxGeometry x="760" y="710" width="40" height="30" as="geometry" />
        </mxCell>
        <mxCell id="M0-3_TugUCF4q0yp-XVS-287" value="0,*" style="text;html=1;align=center;verticalAlign=middle;resizable=0;points=[];autosize=1;strokeColor=none;fillColor=none;fontFamily=Helvetica;fontSize=11;fontColor=default;labelBackgroundColor=default;" vertex="1" parent="1">
          <mxGeometry x="880" y="710" width="40" height="30" as="geometry" />
        </mxCell>
        <mxCell id="M0-3_TugUCF4q0yp-XVS-294" value="Cinema: {[Name: String, &lt;u&gt;PLZ: integer,&lt;/u&gt;&amp;nbsp;Address: String]}" style="text;html=1;align=left;verticalAlign=middle;resizable=0;points=[];autosize=1;strokeColor=none;fillColor=none;fontFamily=Helvetica;fontSize=11;fontColor=default;labelBackgroundColor=default;" vertex="1" parent="1">
          <mxGeometry x="1080" y="535" width="290" height="30" as="geometry" />
        </mxCell>
        <mxCell id="M0-3_TugUCF4q0yp-XVS-298" value="Ticket:{[ Price:double, &lt;u&gt;TicketID: integer&lt;/u&gt;]}" style="text;html=1;align=left;verticalAlign=middle;resizable=0;points=[];autosize=1;strokeColor=none;fillColor=none;fontFamily=Helvetica;fontSize=11;fontColor=default;labelBackgroundColor=default;" vertex="1" parent="1">
          <mxGeometry x="1080" y="565" width="220" height="30" as="geometry" />
        </mxCell>
        <mxCell id="M0-3_TugUCF4q0yp-XVS-301" value="Seat:{[&lt;u&gt;SeatNR: integer&lt;/u&gt;, Row: integer]}" style="text;html=1;align=left;verticalAlign=middle;resizable=0;points=[];autosize=1;strokeColor=none;fillColor=none;fontFamily=Helvetica;fontSize=11;fontColor=default;labelBackgroundColor=default;" vertex="1" parent="1">
          <mxGeometry x="1080" y="595" width="210" height="30" as="geometry" />
        </mxCell>
        <mxCell id="M0-3_TugUCF4q0yp-XVS-302" value="Room{[&lt;u&gt;RoomID: integer&lt;/u&gt;, Box: integer]}" style="text;html=1;align=left;verticalAlign=middle;resizable=0;points=[];autosize=1;strokeColor=none;fillColor=none;fontFamily=Helvetica;fontSize=11;fontColor=default;labelBackgroundColor=default;" vertex="1" parent="1">
          <mxGeometry x="1080" y="625" width="210" height="30" as="geometry" />
        </mxCell>
        <mxCell id="M0-3_TugUCF4q0yp-XVS-303" value="SeatingPlan:{[RoomID: integer, &lt;u&gt;PlanNR: integer&lt;/u&gt;]}" style="text;html=1;align=left;verticalAlign=middle;resizable=0;points=[];autosize=1;strokeColor=none;fillColor=none;fontFamily=Helvetica;fontSize=11;fontColor=default;labelBackgroundColor=default;" vertex="1" parent="1">
          <mxGeometry x="1080" y="655" width="260" height="30" as="geometry" />
        </mxCell>
        <mxCell id="M0-3_TugUCF4q0yp-XVS-307" style="edgeStyle=orthogonalEdgeStyle;shape=connector;rounded=0;orthogonalLoop=1;jettySize=auto;html=1;exitX=0.5;exitY=1;exitDx=0;exitDy=0;strokeColor=default;align=center;verticalAlign=middle;fontFamily=Helvetica;fontSize=11;fontColor=default;labelBackgroundColor=default;endArrow=none;endFill=0;" edge="1" parent="1" source="M0-3_TugUCF4q0yp-XVS-306">
          <mxGeometry relative="1" as="geometry">
            <mxPoint x="980" y="880" as="targetPoint" />
          </mxGeometry>
        </mxCell>
        <mxCell id="M0-3_TugUCF4q0yp-XVS-306" value="Box" style="ellipse;whiteSpace=wrap;html=1;" vertex="1" parent="1">
          <mxGeometry x="980" y="800" width="80" height="40" as="geometry" />
        </mxCell>
        <mxCell id="M0-3_TugUCF4q0yp-XVS-308" value="Film:{[&lt;u&gt;FilmID: integer&lt;/u&gt;, Title: String, YoP: integer, Distributor: String, Country: String, Duration: time, Language: String, Type: String]}" style="text;html=1;align=left;verticalAlign=middle;resizable=0;points=[];autosize=1;strokeColor=none;fillColor=none;fontFamily=Helvetica;fontSize=11;fontColor=default;labelBackgroundColor=default;" vertex="1" parent="1">
          <mxGeometry x="1080" y="685" width="660" height="30" as="geometry" />
        </mxCell>
        <mxCell id="M0-3_TugUCF4q0yp-XVS-310" value="FilmPerson:{[Surname: String, Firstname: String, Nationality: String, DoB: Date, Date of Death: Date, &lt;u&gt;PNVNR: integer&lt;/u&gt;, Comments: String]}" style="text;html=1;align=left;verticalAlign=middle;resizable=0;points=[];autosize=1;strokeColor=none;fillColor=none;fontFamily=Helvetica;fontSize=11;fontColor=default;labelBackgroundColor=default;" vertex="1" parent="1">
          <mxGeometry x="1080" y="715" width="700" height="30" as="geometry" />
        </mxCell>
        <mxCell id="M0-3_TugUCF4q0yp-XVS-311" value="Actor:{[&lt;u&gt;PNVNR: integer&lt;/u&gt;, Role: String]}" style="text;html=1;align=left;verticalAlign=middle;resizable=0;points=[];autosize=1;strokeColor=none;fillColor=none;fontFamily=Helvetica;fontSize=11;fontColor=default;labelBackgroundColor=default;" vertex="1" parent="1">
          <mxGeometry x="1080" y="770" width="210" height="30" as="geometry" />
        </mxCell>
        <mxCell id="M0-3_TugUCF4q0yp-XVS-312" value="Director:{[&lt;u&gt;PNVNR: integer&lt;/u&gt;, IsActor: boolean]}" style="text;html=1;align=left;verticalAlign=middle;resizable=0;points=[];autosize=1;strokeColor=none;fillColor=none;fontFamily=Helvetica;fontSize=11;fontColor=default;labelBackgroundColor=default;" vertex="1" parent="1">
          <mxGeometry x="1080" y="745" width="240" height="30" as="geometry" />
        </mxCell>
        <mxCell id="M0-3_TugUCF4q0yp-XVS-315" style="edgeStyle=orthogonalEdgeStyle;shape=connector;rounded=0;orthogonalLoop=1;jettySize=auto;html=1;exitX=0.5;exitY=1;exitDx=0;exitDy=0;strokeColor=default;align=center;verticalAlign=middle;fontFamily=Helvetica;fontSize=11;fontColor=default;labelBackgroundColor=default;endArrow=none;endFill=0;" edge="1" parent="1" source="M0-3_TugUCF4q0yp-XVS-314">
          <mxGeometry relative="1" as="geometry">
            <mxPoint x="700" y="1040" as="targetPoint" />
            <Array as="points">
              <mxPoint x="620" y="1020" />
              <mxPoint x="701" y="1020" />
              <mxPoint x="701" y="1040" />
            </Array>
          </mxGeometry>
        </mxCell>
        <mxCell id="M0-3_TugUCF4q0yp-XVS-314" value="Type" style="ellipse;whiteSpace=wrap;html=1;" vertex="1" parent="1">
          <mxGeometry x="580" y="920" width="80" height="40" as="geometry" />
        </mxCell>
        <mxCell id="M0-3_TugUCF4q0yp-XVS-318" style="edgeStyle=orthogonalEdgeStyle;shape=connector;rounded=0;orthogonalLoop=1;jettySize=auto;html=1;exitX=0.5;exitY=1;exitDx=0;exitDy=0;entryX=0.5;entryY=0;entryDx=0;entryDy=0;strokeColor=default;align=center;verticalAlign=middle;fontFamily=Helvetica;fontSize=11;fontColor=default;labelBackgroundColor=default;endArrow=none;endFill=0;" edge="1" parent="1" source="M0-3_TugUCF4q0yp-XVS-316" target="M0-3_TugUCF4q0yp-XVS-60">
          <mxGeometry relative="1" as="geometry">
            <Array as="points">
              <mxPoint x="480" y="560" />
              <mxPoint x="480" y="660" />
              <mxPoint x="210" y="660" />
              <mxPoint x="210" y="740" />
              <mxPoint x="340" y="740" />
            </Array>
          </mxGeometry>
        </mxCell>
        <mxCell id="M0-3_TugUCF4q0yp-XVS-316" value="Comments" style="ellipse;whiteSpace=wrap;html=1;" vertex="1" parent="1">
          <mxGeometry x="380" y="520" width="80" height="40" as="geometry" />
        </mxCell>
        <mxCell id="M0-3_TugUCF4q0yp-XVS-321" style="edgeStyle=orthogonalEdgeStyle;shape=connector;rounded=0;orthogonalLoop=1;jettySize=auto;html=1;exitX=0.5;exitY=1;exitDx=0;exitDy=0;strokeColor=default;align=center;verticalAlign=middle;fontFamily=Helvetica;fontSize=11;fontColor=default;labelBackgroundColor=default;endArrow=none;endFill=0;" edge="1" parent="1" source="M0-3_TugUCF4q0yp-XVS-320">
          <mxGeometry relative="1" as="geometry">
            <mxPoint x="980.090909090909" y="720" as="targetPoint" />
          </mxGeometry>
        </mxCell>
        <mxCell id="M0-3_TugUCF4q0yp-XVS-320" value="Address" style="ellipse;whiteSpace=wrap;html=1;" vertex="1" parent="1">
          <mxGeometry x="940" y="600" width="80" height="40" as="geometry" />
        </mxCell>
      </root>
    </mxGraphModel>
  </diagram>
</mxfile>
